<svg width="236" height="269" viewBox="0 0 236 269" fill="none" xmlns="http://www.w3.org/2000/svg">
<path d="M95 52.5C74.1071 26.2709 41.5 52.5 41.5 52.5" stroke="#CBF3F0" stroke-width="15"/>
<path d="M51.5 261.5C62.9893 261.5 73.6964 258.13 81.7157 252.307C89.7271 246.491 95.5 237.814 95.5 227.5C95.5 217.186 89.7271 208.509 81.7157 202.693C73.6964 196.87 62.9893 193.5 51.5 193.5C40.0107 193.5 29.3036 196.87 21.2843 202.693C13.2729 208.509 7.5 217.186 7.5 227.5C7.5 237.814 13.2729 246.491 21.2843 252.307C29.3036 258.13 40.0107 261.5 51.5 261.5Z" fill="white" stroke="#CBF3F0" stroke-width="15"/>
<rect x="89" y="49" width="14" height="180" fill="#CBF3F0"/>
<path d="M183.5 237.5C194.989 237.5 205.696 234.13 213.716 228.307C221.727 222.491 227.5 213.814 227.5 203.5C227.5 193.186 221.727 184.509 213.716 178.693C205.696 172.87 194.989 169.5 183.5 169.5C172.011 169.5 161.304 172.87 153.284 178.693C145.273 184.509 139.5 193.186 139.5 203.5C139.5 213.814 145.273 222.491 153.284 228.307C161.304 234.13 172.011 237.5 183.5 237.5Z" fill="white" stroke="#CBF3F0" stroke-width="15"/>
<rect x="221" y="25" width="14" height="180" fill="#CBF3F0"/>
<path d="M94.5 55C138.859 7.17102 165.634 -11.3731 231 32" stroke="#CBF3F0" stroke-width="15"/>
</svg>
